{
	"asset":{
		"generator":"Khronos glTF Blender I/O v3.6.27",
		"version":"2.0"
	},
	"scene":0,
	"scenes":[
		{
			"name":"Scene",
			"nodes":[
				0
			]
		}
	],
	"nodes":[
		{
			"mesh":0,
			"name":"Modern_Table"
		}
	],
	"materials":[
		{
			"name":"Modern_Table_top",
			"normalTexture":{
				"index":0
			},
			"pbrMetallicRoughness":{
				"baseColorTexture":{
					"index":1
				},
				"metallicRoughnessTexture":{
					"index":2
				}
			}
		},
		{
			"name":"Chrome",
			"pbrMetallicRoughness":{
				"baseColorFactor":[
					0.800000011920929,
					0.800000011920929,
					0.800000011920929,
					1
				],
				"roughnessFactor":0.30000001192092896
			}
		},
		{
			"name":"Modern_Table_bottom",
			"pbrMetallicRoughness":{
				"baseColorFactor":[
					0.03819441795349121,
					0.03819441795349121,
					0.03819441795349121,
					1
				],
				"metallicFactor":0,
				"roughnessFactor":0.30000001192092896
			}
		}
	],
	"meshes":[
		{
			"name":"Modern_Table",
			"primitives":[
				{
					"attributes":{
						"POSITION":0,
						"NORMAL":1,
						"TEXCOORD_0":2,
						"TEXCOORD_1":3
					},
					"indices":4,
					"material":0
				},
				{
					"attributes":{
						"POSITION":5,
						"NORMAL":6,
						"TEXCOORD_0":7,
						"TEXCOORD_1":8
					},
					"indices":9,
					"material":1
				},
				{
					"attributes":{
						"POSITION":10,
						"NORMAL":11,
						"TEXCOORD_0":12,
						"TEXCOORD_1":13
					},
					"indices":14,
					"material":2
				}
			]
		}
	],
	"textures":[
		{
			"sampler":0,
			"source":0
		},
		{
			"sampler":0,
			"source":1
		},
		{
			"sampler":0,
			"source":2
		}
	],
	"images":[
		{
			"mimeType":"image/png",
			"name":"M_Modern_Table_top_Normal",
			"uri":"M_Modern_Table_top_Normal.png"
		},
		{
			"mimeType":"image/png",
			"name":"M_Modern_Table_top_BaseColor",
			"uri":"M_Modern_Table_top_BaseColor.png"
		},
		{
			"mimeType":"image/png",
			"name":"M_Modern_Table_top_MetallicRoughness",
			"uri":"M_Modern_Table_top_MetallicRoughness.png"
		}
	],
	"accessors":[
		{
			"bufferView":0,
			"componentType":5126,
			"count":128,
			"max":[
				0.9684315919876099,
				0.7801045775413513,
				0.4613036513328552
			],
			"min":[
				-0.9613773226737976,
				0.7618131637573242,
				-0.44803279638290405
			],
			"type":"VEC3"
		},
		{
			"bufferView":1,
			"componentType":5126,
			"count":128,
			"type":"VEC3"
		},
		{
			"bufferView":2,
			"componentType":5126,
			"count":128,
			"type":"VEC2"
		},
		{
			"bufferView":3,
			"componentType":5126,
			"count":128,
			"type":"VEC2"
		},
		{
			"bufferView":4,
			"componentType":5123,
			"count":564,
			"type":"SCALAR"
		},
		{
			"bufferView":5,
			"componentType":5126,
			"count":936,
			"max":[
				0.7499834895133972,
				0.7310522794723511,
				0.350304514169693
			],
			"min":[
				-0.7415366172790527,
				0.0003218100464437157,
				-0.3370662331581116
			],
			"type":"VEC3"
		},
		{
			"bufferView":6,
			"componentType":5126,
			"count":936,
			"type":"VEC3"
		},
		{
			"bufferView":7,
			"componentType":5126,
			"count":936,
			"type":"VEC2"
		},
		{
			"bufferView":8,
			"componentType":5126,
			"count":936,
			"type":"VEC2"
		},
		{
			"bufferView":9,
			"componentType":5123,
			"count":2688,
			"type":"SCALAR"
		},
		{
			"bufferView":10,
			"componentType":5126,
			"count":1700,
			"max":[
				0.7528975009918213,
				0.7607095837593079,
				0.3544565439224243
			],
			"min":[
				-0.7444505095481873,
				0.004420225042849779,
				-0.3412182033061981
			],
			"type":"VEC3"
		},
		{
			"bufferView":11,
			"componentType":5126,
			"count":1700,
			"type":"VEC3"
		},
		{
			"bufferView":12,
			"componentType":5126,
			"count":1700,
			"type":"VEC2"
		},
		{
			"bufferView":13,
			"componentType":5126,
			"count":1700,
			"type":"VEC2"
		},
		{
			"bufferView":14,
			"componentType":5123,
			"count":6984,
			"type":"SCALAR"
		}
	],
	"bufferViews":[
		{
			"buffer":0,
			"byteLength":1536,
			"byteOffset":0,
			"target":34962
		},
		{
			"buffer":0,
			"byteLength":1536,
			"byteOffset":1536,
			"target":34962
		},
		{
			"buffer":0,
			"byteLength":1024,
			"byteOffset":3072,
			"target":34962
		},
		{
			"buffer":0,
			"byteLength":1024,
			"byteOffset":4096,
			"target":34962
		},
		{
			"buffer":0,
			"byteLength":1128,
			"byteOffset":5120,
			"target":34963
		},
		{
			"buffer":0,
			"byteLength":11232,
			"byteOffset":6248,
			"target":34962
		},
		{
			"buffer":0,
			"byteLength":11232,
			"byteOffset":17480,
			"target":34962
		},
		{
			"buffer":0,
			"byteLength":7488,
			"byteOffset":28712,
			"target":34962
		},
		{
			"buffer":0,
			"byteLength":7488,
			"byteOffset":36200,
			"target":34962
		},
		{
			"buffer":0,
			"byteLength":5376,
			"byteOffset":43688,
			"target":34963
		},
		{
			"buffer":0,
			"byteLength":20400,
			"byteOffset":49064,
			"target":34962
		},
		{
			"buffer":0,
			"byteLength":20400,
			"byteOffset":69464,
			"target":34962
		},
		{
			"buffer":0,
			"byteLength":13600,
			"byteOffset":89864,
			"target":34962
		},
		{
			"buffer":0,
			"byteLength":13600,
			"byteOffset":103464,
			"target":34962
		},
		{
			"buffer":0,
			"byteLength":13968,
			"byteOffset":117064,
			"target":34963
		}
	],
	"samplers":[
		{
			"magFilter":9729,
			"minFilter":9987
		}
	],
	"buffers":[
		{
			"byteLength":131032,
			"uri":"modern_table.bin"
		}
	]
}
